<svg width="946" height="945" viewBox="0 0 946 945" fill="none" xmlns="http://www.w3.org/2000/svg">
<path d="M104 497.5H361C408.773 497.5 447.5 536.227 447.5 584V841C447.5 888.773 408.773 927.5 361 927.5H17.5V584C17.5 536.227 56.2274 497.5 104 497.5Z" stroke="#00D5BE" stroke-width="35"/>
<path d="M113 548.5H351C375.577 548.5 395.5 568.423 395.5 593V831C395.5 855.577 375.577 875.5 351 875.5H68.5V593C68.5 568.423 88.4233 548.5 113 548.5Z" fill="#00D5BE" stroke="#00D5BE" stroke-width="35"/>
<path d="M361 17.5C408.773 17.5 447.5 56.2274 447.5 104V361C447.5 408.773 408.773 447.5 361 447.5H104C56.2274 447.5 17.5 408.773 17.5 361V17.5H361Z" stroke="#00D5BE" stroke-width="35"/>
<path d="M351 68.5C375.577 68.5 395.5 88.4233 395.5 113V351C395.5 375.577 375.577 395.5 351 395.5H113C88.4233 395.5 68.5 375.577 68.5 351V68.5H351Z" fill="#00D5BF" stroke="#00D5BE" stroke-width="35"/>
<path d="M265.918 620.944C277.831 621.546 288 630.705 288 642.633C288 645.74 287.771 648.957 287.313 652.286C287.313 658.707 281.619 663.353 275.217 663.842C269.316 664.292 263.505 664.656 257.783 664.933C248.626 665.377 239.47 665.599 230.313 665.599C221.614 665.599 212.687 665.377 203.53 664.933C198.184 664.661 192.751 664.304 187.231 663.864C180.95 663.362 175.606 658.853 174.687 652.618C174.229 649.29 174 646.072 174 642.966C174 640.081 174.229 636.975 174.687 633.646C175.601 627.001 181.183 622.081 187.868 621.533C193.318 621.087 198.767 620.798 204.217 620.666C213.831 620.222 223.217 620 232.373 620C241.072 620 249.771 620.222 258.47 620.666C260.953 620.726 263.435 620.819 265.918 620.944ZM285.94 804C285.94 826.644 267.583 845 244.94 845H217.06C194.417 845 176.06 826.644 176.06 804V723.907C176.06 701.263 194.417 682.907 217.06 682.907H244.94C267.583 682.907 285.94 701.263 285.94 723.907V804Z" fill="#060C0C"/>
<rect x="145" y="603" width="174" height="68" fill="#00D5BE"/>
<circle cx="232.5" cy="621.5" r="42.5" fill="#060C0C"/>
<path d="M114 232.266C114 194.473 117.435 164.488 124.304 142.312C131.428 120.136 143.514 104.206 160.56 94.5238C177.862 84.8413 201.905 80 232.691 80C255.844 80 275.053 82.6549 290.319 87.9647C305.585 93.2744 317.67 101.864 326.575 113.733C335.48 125.602 341.713 141.375 345.275 161.052C349.092 180.417 351 204.155 351 232.266C351 260.689 349.092 284.739 345.275 304.416C341.713 323.781 335.48 339.398 326.575 351.267C317.67 363.136 305.585 371.726 290.319 377.035C275.053 382.345 255.844 385 232.691 385C209.538 385 190.329 382.345 175.063 377.035C159.797 371.726 147.712 363.136 138.807 351.267C129.902 339.398 123.541 323.781 119.725 304.416C115.908 284.739 114 260.689 114 232.266ZM232.691 319.409C248.974 319.409 261.187 316.91 269.329 311.912C277.47 306.915 282.94 298.169 285.739 285.676C288.538 272.87 289.937 255.067 289.937 232.266C289.937 209.777 288.538 192.286 285.739 179.793C282.94 167.299 277.47 158.554 269.329 153.556C261.187 148.246 248.974 145.591 232.691 145.591C216.662 145.591 204.449 148.246 196.053 153.556C187.911 158.554 182.314 167.299 179.261 179.793C176.462 192.286 175.063 209.777 175.063 232.266C175.063 255.067 176.462 272.87 179.261 285.676C182.314 298.169 187.911 306.915 196.053 311.912C204.449 316.91 216.662 319.409 232.691 319.409Z" fill="black"/>
<path d="M585 17.5H928.5V361C928.5 408.773 889.773 447.5 842 447.5H585C537.227 447.5 498.5 408.773 498.5 361V104C498.5 56.2274 537.227 17.5 585 17.5Z" stroke="#00D5BE" stroke-width="35"/>
<path d="M594 68.5H876.5V351C876.5 375.577 856.577 395.5 832 395.5H594C569.423 395.5 549.5 375.577 549.5 351V113C549.5 88.4233 569.423 68.5 594 68.5Z" fill="#00D5BE" stroke="#00D5BE" stroke-width="35"/>
<path d="M670.225 79.5L670.314 79.8867C674.06 95.9786 678.038 114.322 682.251 134.916C686.463 155.508 690.559 176.582 694.537 198.139L695.32 202.105C699.201 221.866 702.568 240.497 705.421 257.997H705.42C708.657 276.12 711.097 291.263 712.735 303.424H713.266C714.902 291.264 717.222 276.121 720.229 257.996L720.229 257.991C723.506 239.329 727.133 219.379 731.111 198.144L731.112 198.139C735.324 176.904 739.537 155.99 743.749 135.398C747.962 114.805 751.94 96.3013 755.685 79.8887L755.773 79.5H819.626L819.487 80.1104L750.342 385.11L750.254 385.5H672.231L672.146 385.105L606.511 80.1055L606.381 79.5H670.225Z" fill="#060C0C" stroke="#00D5BE"/>
<path d="M585 497.5H842C889.773 497.5 928.5 536.227 928.5 584V927.5H585C537.227 927.5 498.5 888.773 498.5 841V584C498.5 536.227 537.227 497.5 585 497.5Z" stroke="#00D5BE" stroke-width="35"/>
<path d="M594 548.5H832C856.577 548.5 876.5 568.423 876.5 593V875.5H594C569.423 875.5 549.5 855.577 549.5 831V593C549.5 568.423 569.423 548.5 594 548.5Z" fill="#00D5BE" stroke="#00D5BE" stroke-width="35"/>
<path d="M841.5 862.5H767.036L766.894 862.241L717.069 771.649L716.84 771.705C715.253 768.574 712.732 764.488 709.267 759.439L709.258 759.426L709.25 759.412C706.06 754.063 702.605 749.188 698.888 744.787L698.876 744.773C697.157 742.583 695.555 740.962 694.072 739.894C692.588 738.824 691.254 738.329 690.061 738.329H688.559V862.5H623.5V561.5H688.559V687.093H689.26C690.433 687.093 691.759 686.535 693.246 685.311C694.731 684.088 696.336 682.234 698.057 679.727L698.062 679.72L698.066 679.712C701.788 674.677 705.111 669.644 708.034 664.612L761.684 561.769L761.824 561.5H832.292V563.545L832.234 563.653L786.593 650.857C782.587 658.761 778.047 667.295 772.975 676.46L772.971 676.467C767.892 685.326 762.81 693.239 757.727 700.207L757.728 700.208C753.04 706.681 748.804 710.837 745.011 712.562V713.355C748.779 715.359 753.009 719.485 757.705 725.658L758.659 726.801C763.427 732.575 768.191 739.319 772.951 747.028L774.942 749.992C778.899 755.921 782.706 761.851 786.362 767.78L788.178 770.745L788.181 770.749L841.43 860.322L841.5 860.44V862.5Z" fill="#060C0C" stroke="#00D5BE"/>
</svg>
